<svg width="117" height="22" viewBox="0 0 117 22" fill="none" xmlns="http://www.w3.org/2000/svg">
<g clip-path="url(#clip0_9982_24)">
<path d="M9.44303 9.57608C8.30436 9.59475 7.28703 9.81875 6.39103 10.2481C5.49503 10.6587 4.85103 11.2841 4.45903 12.1241V21.0001H0.707031V6.32808H4.15103V9.46408C4.41236 8.96008 4.72036 8.51208 5.07503 8.12008C5.4297 7.70941 5.81236 7.35475 6.22303 7.05608C6.6337 6.75741 7.04436 6.53341 7.45503 6.38408C7.88436 6.21608 8.29503 6.13208 8.68703 6.13208C8.89237 6.13208 9.0417 6.13208 9.13503 6.13208C9.24703 6.13208 9.3497 6.14141 9.44303 6.16008V9.57608Z" fill="#383838"/>
<path d="M17.881 21.2801C16.705 21.2801 15.641 21.0841 14.689 20.6921C13.737 20.2814 12.925 19.7307 12.253 19.0401C11.581 18.3494 11.0583 17.5467 10.685 16.6321C10.3303 15.7174 10.153 14.7561 10.153 13.7481C10.153 12.7027 10.3303 11.7227 10.685 10.8081C11.0396 9.87472 11.553 9.06271 12.225 8.37205C12.897 7.66271 13.709 7.10272 14.661 6.69205C15.6316 6.28138 16.7143 6.07605 17.909 6.07605C19.1036 6.07605 20.1676 6.28138 21.101 6.69205C22.053 7.10272 22.8556 7.65338 23.509 8.34405C24.181 9.03472 24.685 9.83738 25.021 10.7521C25.3756 11.6667 25.553 12.6187 25.553 13.6081C25.553 13.8507 25.5436 14.0841 25.525 14.3081C25.525 14.5321 25.5063 14.7187 25.469 14.8681H14.129C14.185 15.4467 14.325 15.9601 14.549 16.4081C14.773 16.8561 15.0623 17.2387 15.417 17.5561C15.7716 17.8734 16.173 18.1161 16.621 18.2841C17.069 18.4521 17.5356 18.5361 18.021 18.5361C18.7676 18.5361 19.4676 18.3587 20.121 18.0041C20.793 17.6307 21.2503 17.1454 21.493 16.5481L24.713 17.4441C24.1716 18.5641 23.3036 19.4881 22.109 20.2161C20.933 20.9254 19.5236 21.2801 17.881 21.2801ZM21.689 12.4321C21.5956 11.3307 21.185 10.4534 20.457 9.80005C19.7476 9.12805 18.8796 8.79205 17.853 8.79205C17.349 8.79205 16.873 8.88538 16.425 9.07205C15.9956 9.24005 15.613 9.48272 15.277 9.80005C14.941 10.1174 14.661 10.5001 14.437 10.9481C14.2316 11.3961 14.1103 11.8907 14.073 12.4321H21.689Z" fill="#383838"/>
<path d="M41.7547 21.0001H38.0027V12.7681C38.0027 11.5921 37.7974 10.7334 37.3867 10.1921C36.976 9.65071 36.4067 9.38005 35.6787 9.38005C35.3054 9.38005 34.9227 9.45472 34.5307 9.60405C34.1387 9.75338 33.7654 9.96805 33.4107 10.2481C33.0747 10.5094 32.7667 10.8267 32.4867 11.2001C32.2067 11.5734 32.0014 11.9841 31.8707 12.4321V21.0001H28.1187V6.32805H31.5067V9.04405C32.048 8.11072 32.832 7.38272 33.8587 6.86005C34.8854 6.33738 36.0427 6.07605 37.3307 6.07605C38.2454 6.07605 38.992 6.24405 39.5707 6.58005C40.1494 6.91605 40.5974 7.35472 40.9147 7.89605C41.232 8.43738 41.4467 9.05338 41.5587 9.74405C41.6894 10.4347 41.7547 11.1347 41.7547 11.8441V21.0001Z" fill="#383838"/>
<path d="M53.9524 20.2442C53.4484 20.4682 52.8324 20.6922 52.1044 20.9162C51.3764 21.1402 50.6111 21.2522 49.8084 21.2522C49.2857 21.2522 48.7911 21.1868 48.3244 21.0562C47.8764 20.9255 47.4751 20.7202 47.1204 20.4402C46.7844 20.1415 46.5137 19.7682 46.3084 19.3202C46.1031 18.8535 46.0004 18.2935 46.0004 17.6402V9.21212H44.0684V6.32812H46.0004V1.56812H49.7524V6.32812H52.8324V9.21212H49.7524V16.3802C49.7524 16.9028 49.8831 17.2762 50.1444 17.5002C50.4244 17.7055 50.7604 17.8082 51.1524 17.8082C51.5444 17.8082 51.9271 17.7428 52.3004 17.6122C52.6737 17.4815 52.9724 17.3695 53.1964 17.2762L53.9524 20.2442Z" fill="#383838"/>
<path d="M56.1864 21.0001V6.32806H59.9384V21.0001H56.1864ZM56.1864 4.28406V0.560059H59.9384V4.28406H56.1864Z" fill="#383838"/>
<path d="M72.4511 21.1401C70.9951 21.1401 69.6698 20.8601 68.4751 20.3001C67.2991 19.7214 66.2818 18.9654 65.4231 18.0321C64.5831 17.0801 63.9298 15.9974 63.4631 14.7841C62.9965 13.5707 62.7631 12.3294 62.7631 11.0601C62.7631 9.73477 63.0058 8.46543 63.4911 7.2521C63.9951 6.03876 64.6765 4.96543 65.5351 4.0321C66.4125 3.09877 67.4485 2.36143 68.6431 1.8201C69.8378 1.2601 71.1351 0.980103 72.5351 0.980103C73.9725 0.980103 75.2791 1.27877 76.4551 1.8761C77.6498 2.45477 78.6671 3.2201 79.5071 4.1721C80.3471 5.1241 81.0005 6.20677 81.4671 7.4201C81.9338 8.63343 82.1671 9.86543 82.1671 11.1161C82.1671 12.4414 81.9245 13.7107 81.4391 14.9241C80.9538 16.1187 80.2818 17.1827 79.4231 18.1161C78.5645 19.0307 77.5378 19.7681 76.3431 20.3281C75.1485 20.8694 73.8511 21.1401 72.4511 21.1401ZM66.6831 11.0601C66.6831 11.9187 66.8138 12.7494 67.0751 13.5521C67.3365 14.3547 67.7098 15.0641 68.1951 15.6801C68.6991 16.2961 69.3058 16.7907 70.0151 17.1641C70.7431 17.5374 71.5645 17.7241 72.4791 17.7241C73.4125 17.7241 74.2338 17.5374 74.9431 17.1641C75.6711 16.7721 76.2778 16.2587 76.7631 15.6241C77.2671 14.9894 77.6405 14.2801 77.8831 13.4961C78.1445 12.6934 78.2751 11.8814 78.2751 11.0601C78.2751 10.2014 78.1351 9.37076 77.8551 8.5681C77.5938 7.76543 77.2111 7.0561 76.7071 6.4401C76.2218 5.8241 75.6151 5.33876 74.8871 4.9841C74.1778 4.61077 73.3751 4.4241 72.4791 4.4241C71.5458 4.4241 70.7151 4.6201 69.9871 5.0121C69.2591 5.38543 68.6525 5.88943 68.1671 6.5241C67.6818 7.1401 67.3085 7.84943 67.0471 8.6521C66.8045 9.4361 66.6831 10.2387 66.6831 11.0601Z" fill="#383838"/>
<path d="M98.6832 21.0001H94.9312V12.7681C94.9312 11.5921 94.7259 10.7334 94.3152 10.1921C93.9045 9.65071 93.3352 9.38005 92.6072 9.38005C92.2339 9.38005 91.8512 9.45472 91.4592 9.60405C91.0672 9.75338 90.6939 9.96805 90.3392 10.2481C90.0032 10.5094 89.6952 10.8267 89.4152 11.2001C89.1352 11.5734 88.9299 11.9841 88.7992 12.4321V21.0001H85.0472V6.32805H88.4352V9.04405C88.9765 8.11072 89.7605 7.38272 90.7872 6.86005C91.8139 6.33738 92.9712 6.07605 94.2592 6.07605C95.1739 6.07605 95.9205 6.24405 96.4992 6.58005C97.0779 6.91605 97.5259 7.35472 97.8432 7.89605C98.1605 8.43738 98.3752 9.05338 98.4872 9.74405C98.6179 10.4347 98.6832 11.1347 98.6832 11.8441V21.0001Z" fill="#383838"/>
<path d="M109.03 21.2801C107.854 21.2801 106.79 21.0841 105.838 20.6921C104.886 20.2814 104.074 19.7307 103.402 19.0401C102.73 18.3494 102.207 17.5467 101.834 16.6321C101.479 15.7174 101.302 14.7561 101.302 13.7481C101.302 12.7027 101.479 11.7227 101.834 10.8081C102.188 9.87472 102.702 9.06271 103.374 8.37205C104.046 7.66271 104.858 7.10272 105.81 6.69205C106.78 6.28138 107.863 6.07605 109.058 6.07605C110.252 6.07605 111.316 6.28138 112.25 6.69205C113.202 7.10272 114.004 7.65338 114.658 8.34405C115.33 9.03472 115.834 9.83738 116.17 10.7521C116.524 11.6667 116.702 12.6187 116.702 13.6081C116.702 13.8507 116.692 14.0841 116.674 14.3081C116.674 14.5321 116.655 14.7187 116.618 14.8681H105.278C105.334 15.4467 105.474 15.9601 105.698 16.4081C105.922 16.8561 106.211 17.2387 106.566 17.5561C106.92 17.8734 107.322 18.1161 107.77 18.2841C108.218 18.4521 108.684 18.5361 109.17 18.5361C109.916 18.5361 110.616 18.3587 111.27 18.0041C111.942 17.6307 112.399 17.1454 112.642 16.5481L115.862 17.4441C115.32 18.5641 114.452 19.4881 113.258 20.2161C112.082 20.9254 110.672 21.2801 109.03 21.2801ZM112.838 12.4321C112.744 11.3307 112.334 10.4534 111.606 9.80005C110.896 9.12805 110.028 8.79205 109.002 8.79205C108.498 8.79205 108.022 8.88538 107.574 9.07205C107.144 9.24005 106.762 9.48272 106.426 9.80005C106.09 10.1174 105.81 10.5001 105.586 10.9481C105.38 11.3961 105.259 11.8907 105.222 12.4321H112.838Z" fill="#383838"/>
<path d="M101.5 0H116.5V3H101.5V0Z" fill="#383838"/>
</g>
<defs>
<clipPath id="clip0_9982_24">
<rect width="117" height="22" fill="white"/>
</clipPath>
</defs>
</svg>
